<svg xmlns="http://www.w3.org/2000/svg" width="3333.331" height="1066.666" viewBox="0 0 2500 800"><path fill="#fff" d="M397 232V85c.02-3.71-.08-6.69 2.57-9.66 3.89-4.36 10.08-4.33 15.43-4.12h28c4.33.92 8.43 2 10.99 5.88 2.23 3.37 2 7.06 2.01 10.9v630c.13 10.96 4.84 25.46-11 28.84-2.68.21-5.29.16-8 0h-27c-10.84.01-12.98-5.07-13-14.84V569h17l17-1-1-6-18 1-43 1v29l-32-11.31-61-22.84c-16.51-7.09-29.66-11.91-38.68-28.85-7.87-14.79-5.32-45.58-5.32-63l-27 8.86c-3.99 1.14-8.85 2.82-13 1.71-5.85-1.57-12.49-11.65-16-16.57l-30.47-41c-2.77-3.68-12.8-15.04-12.95-19-.14-4.11 9.08-15.38 11.79-19l31.92-43c3.36-4.69 10.16-15.32 15.71-16.69 4.05-.99 10.1.79 14 2.03l26 9.66c0-12.76-1.08-42.14 1.5-53 .96-4.04 2.81-8.37 4.81-12 8.44-15.32 25.17-22.81 40.69-29l41-14.69L369 208c0 5.47-1.03 22.94 1.85 26.7 3.38 4.4 14.01 3.24 19.15 3.3l14 1h27l-4.21-5.83L420 232zm131 340.13V724c-.01 3.74.13 7.53-1.57 10.98-4.03 8.21-11.03 6.6-18.43 7.11l-10 .91c-6.41.07-20.97 1.32-25.78-2.65-4.35-3.6-4.21-9.23-4.22-14.35V111c0-5.12-.53-24.44.7-27.99 1.08-3.11 3.33-5.46 6.34-6.78 3.13-1.38 6.62-1.22 9.96-1.23h26c12.7.16 16.98 5.85 17 18v137l-35-1v7l52 1 15 1h16v-7h-16l-19-1V102c-.1-7.99-2.85-19.59 8-22.86 1.85-.22 5.02-.14 7 0h29c3.98-.12 7.51-.16 10.79 2.51 4.93 4.01 5.2 10.55 5.21 16.35v618c0 9.16.93 17.78-10 21.06-3.29.99-6.61.93-10 .94l-27 .81c-10.55-.89-12.98-6.34-13-15.81V571l15-1c9.44-.04 15.58 2.44 20-7l-40 1-12 .96h-14L493 566c1.02 3.37 2.15 5.7 6 6.13zM612 172V99c.02-12.52 3.48-15.98 16-16h28c10.78.02 15.84 3.55 16 15v58h-11c-14.98-.07-19.93-3.99-35 4.31-7.13 3.93-8.4 6.8-14 11.69m72-15v-54c.02-3.08-.01-6.07 1.15-9 3.61-9.11 12.85-8 20.85-8h13c6.78 0 15.5-1.26 20.89 3.39 5.08 4.38 5.1 9.48 5.11 15.61v100c0 4.28.6 8.97-1 13l-15.68-31c-6.06-11.54-7.27-18.67-20.32-25.68-8.86-4.75-14.45-4.32-24-4.32m96 131-7.19-13-4.67-10c-2.66-4.87-10.75-19.35-12.04-24-.17-2.12-.1-4.81 0-7V111c-.1-4.62-.7-10.99 1.75-14.98 3.64-5.92 7.98-6.01 14.15-6.02h28c3.48.01 6.9-.27 9.96 1.74 5.77 3.78 6.03 9.1 6.04 15.26v111c-.04 2.37.04 5.58-1.74 7.4-1.9 1.94-5.73 1.59-8.26 1.6h-24v7h27c-.83 2.92-3.13 9.26-5.63 11-2.95 2.06-16.7.89-20.37 0l-1 8h18l-11.69 21zm48-88v-90c.02-14.6 4.88-17.98 19-18l24 .91c4.69.32 8.92-.72 12.89 2.52 4.46 3.64 5.04 9.22 5.11 14.57v54c-19.28 0-31.77-4.98-46.67 13zm72-36v-54c.05-10.09 3.77-13.86 14-14h30c3.98.01 7.36-.26 10.82 2.15 5.22 3.63 5.17 8.15 5.18 13.85v119h-19c4.66-10.81 11.46-19.67 10.96-32-.59-14.74-11.1-27.71-24.96-32.25-5.05-1.66-21.27-2.73-27-2.75m72 67v-99c0-10.85-3.25-28.36 10-32.21 3.06-.89 5.87-.79 9-.79 6.19-.01 26.34-.56 31 .79 3.27.95 5.91 2.45 7.86 5.31 2.97 4.37 3.13 10.8 3.14 15.9v570c-.15 12.9-3.36 18.93-17 19h-17l-14 .9c-10.65-.75-12.95-7.58-13-16.9V566l13-1h22v-7h-16l-12 .96h-14l-12 1h-13c-9.05.02-10.69-2.3-14-10.96l18-1 38-1 12-.96h13V539l-35 1V257l15 1h20v-7l-58-1-19-1 8.33-11.14H971l15 1.14h21v-7h-20zm119 334c0 9.72-1.01 31.77 1.44 40 4.57 15.35 11.53 11.93 11.56 26v38c0 5.1.57 25.6-.74 29-1.27 3.28-4.05 5.59-7.26 6.85-3.23 1.27-6.6 1.14-10 1.15l-26 1c-5.05-.06-10.07-.64-13.28-5.11-2.73-3.8-2.71-9.41-2.72-13.89V124c0-8.39-1.02-17.04 9-20.2 2.87-.9 6.02-.8 9-.8h26c12.44.15 15.98 5.16 16 17v52c-.03 13.86-6.46 10.37-11.25 25-2.81 8.56-1.75 25.4-1.75 35l-22-1v7h22v13l-22-1v7h22v283l-22 1v7l10-.96h12V559c-8.39 0-19.11-2.71-22 7zm25-392v-52c.2-11.41 6.95-13.98 17-14h27c7.1.01 12.04.68 15.35 8 2.26 4.99 1.65 14.35 1.65 20v38h-20l-12-.96h-16zm72 1v-49c.13-9.58 4.42-13.87 14-14h31c3.97.02 7.51-.02 10.79 2.65 4.38 3.57 4.2 8.25 4.21 13.35v109c-2.46-.11-11.81-.85-13.51-2.02-2.4-1.66-4.46-8.18-5.55-10.98l-10.25-25c-6.34-13.96-15.88-21.01-30.69-24m72 62V131c.06-12.19 3.53-16.98 16-17h29c5.63.07 9.96.88 13.26 6.02 2.01 3.12 1.73 6.45 1.61 9.98v75c.13 2.22.2 4.85 0 7l-12.42 30-23.03 56c-3.16 7.54-8.31 22.76-12.42 29l-11.87-28v-37H1277l18 1v-7l-20-1h-22l-11.3-1.95L1237 242l15 1h18l12 .96h13V237l-15-1zm72-46v-44c0-6.76-.92-16.07 2.41-21.98 3.54-6.25 8.27-6.01 14.59-6.02h27c6.47.01 11.5.44 14.83 7 1.77 3.5 1.17 12.76 1.17 17v39c-10.63-1.4-9.6-.28-18-.59-8.54-.31-17.68-1.45-26 1.03-6.76 2.01-10.23 4.95-16 8.56m72-8v-34c0-5.28-.5-14.28 1.26-19 2.42-6.48 7.45-7.91 13.74-8h29c3.55.01 6.84-.27 9.98 1.74 6.69 4.26 7.01 11.17 7.02 18.26v197l-1 22v292c0 4.52.5 20.8-.74 24-1.4 3.62-4.63 6.06-8.26 7.2-2.88.9-6.01.8-9 .8h-28c-12.6-.18-13.98-8.46-14-19v-48c7.57 0 17.97-.69 25-3.46 14.7-5.8 22.93-19.01 23-34.54V220c-.03-21.09-14.32-37.74-36-38zm132 375v92c0 9.42 2.79 24.96-8 29.11-2.66 1.02-6.17.89-9 .89h-29c-4.08-.06-7.53-.31-10.61-3.39-3.61-3.61-3.38-7.92-3.39-12.61V159c0-5.4-.68-23 1.01-26.96 1.29-3.05 3.88-5.27 6.99-6.34 2.4-.82 5.47-.7 8-.7h25c3.53 0 8.88-.4 12 1.17 6.56 3.33 6.99 8.36 7 14.83v98l-34-1v7.04h16l12 .96 54 1v-7h-21l-15-1v-94c.06-12.86 4.24-16.98 17-17h28c5.92.08 10.88 1.21 13.83 7 1.38 2.72 1.17 6.03 1.17 9v514c-.02 13.33-5.52 15.98-18 16h-27c-11.39-.14-14.95-5.11-15-16V556h23l13-1v-6h-19l-12 .96h-16l-17 1.04c-7.83.01-16.23-2.3-19 7zm84-338v-70c.02-13.1 4.02-16.98 17-17h28c6.49.08 11.29 1.36 13.99 8 1.51 3.69 1.01 12.67 1.01 17v34l-14-1c-15.32-.07-26.83.01-37.67 13-5.54 6.64-5.08 9.8-8.33 16m72-28v-30c0-5.12-.47-12.35 1.65-17 2.88-6.32 7.16-6.97 13.35-7h25c3.69 0 9.79-.45 13 1.17 6.56 3.33 6.99 8.36 7 14.83v336l-19.12 1V221c-2.74-13.3-12.02-24.04-24.88-28.25-6.27-2.06-9.62-1.75-16-1.75m72 298V157c.07-13.2 5.83-15.98 18-16h25c12.7.16 16.98 5.85 17 18v87l-34-1-1 7 17 1 49 1 17 1v-7l-19-1h-17v-86c.15-11.29 5.28-14.95 16-15h28c4.76.06 9.15.5 12.61 4.22 3.57 3.85 3.38 7.93 3.39 12.78v315c0 6.45.88 27.27-1 32-1.09-3.82-2.45-6.75-4.79-10-14.53-20.27-33.73-14.02-54.21-14V279c.2-10.7 6.14-6.02 20-6h16v-6l-15-1h-17l-16-1h-22c-6.8-.03-11.6-2.54-13 6l35 1v214l-23 1-17 1zm204 60.02V624c-.01 3.41.19 6.84-1.45 9.96-4.91 9.32-24.39 7.04-33.55 7.04-5.7 0-15.36 1.02-19.9-2.51-5.03-3.92-5.09-8.72-5.1-14.49V168c.02-12.89 4.11-16.98 17-17h27c12.31.15 15.98 5.33 16 17v82l-33-1-1 7 16 1 65 1v-7l-34-1v-79c.06-11.21 3.79-14.94 15-15h29c3.63.02 6.72-.06 9.91 2.01 5.79 3.75 6.08 8.81 6.09 14.99v439c-.04 2.79-.09 4.23-.62 7-2.69 14.21-13.03 11.98-24.38 12l-20 1c-12.01-.15-14.98-4.69-15-16v-68h13l21-1v-7c-6.08 1.73-16.36.99-23 1l-16 1h-12l-19 1c-2.31 0-6.76-.22-8.63 1.17-2.68 1.99-.57 5.11 3.63 5.67l10-.82zM193 279c3.2-20.76 16.33-43.43 33-56.1 8.85-6.73 17.98-10.69 28-15.2l60-24.5 35-14.48 20-8.72v14c0 2.06.26 5.62-.99 7.3-1.22 1.65-5.08 2.94-7.01 3.65l-15 5.39-73 26.08c-26.16 9.87-51.39 24.81-61.3 52.58-5.28 14.77-2.44 20.69-4.7 30-9.66-2.18-12.95-4.53-23-.91-11.74 4.23-19.41 16.2-26.42 25.91l-32.73 44-16.27 22c-1.81 2.5-5.7 6.94-5.74 10-.04 3.26 3.8 7.5 5.74 10l16.54 22 34 46c5.87 7.96 13.59 19.4 22.88 23.47 9.48 4.15 15.58 1.8 25 .53.15 6.66 1.38 17.7 3.35 24 2.33 7.48 4.99 14.44 9.4 21 14.53 21.61 38.01 30.81 61.25 39.81l28 10.77 45 15.84c13.6 5.09 14.94 3.51 15 12.58v13l-25-9.99L306 614c-21.38-8.55-58.16-21.85-76-34.44-7.14-5.04-14.82-12.59-20.1-19.56-6.27-8.26-11.27-18.16-14.55-28L192 521c-1.32 3.08-2.15 4.37-4.26 7-2.08 2.59-4.83 6.01-7.78 7.55-6.95 3.62-17.85-1.87-23.96-5.43-14.95-8.7-31.48-34.6-42.37-49.12l-44.5-60L59 407c-1.66-2.39-3.75-4.9-3.16-8 .61-3.18 6.87-11.11 9.03-14l20.76-28 37-50c6.04-8.06 15.61-21.14 22.38-28 6.37-6.44 22.26-17.96 31.99-15.42 7.05 1.85 10.87 10.67 16 15.42m1947-119 88 36c19.35 7.74 44.74 16.94 60 31.09 16.3 15.11 22.94 31.15 29 51.91 2.82-3.97 8.89-12.73 13.01-14.7 3.52-1.91 7.41-.88 10.99 0 8.55 2.54 16.71 7.37 22.91 13.74l26.46 33.96 38.77 52 15.99 22c1.93 2.58 7.17 9.22 7.92 12 .88 3.25-.91 5.45-2.64 8l-10.7 15-45.71 62c-7.37 10.32-23.44 31.6-32 39.99-6.68 6.54-15.34 12.55-25 12.97-10.33.45-14.17-5.13-21-11.96-.66 7.33-4.5 15.4-7.76 22-18.58 37.69-54.21 47.79-90.24 62.2l-29 11.8-50 19c0-4.02-.63-15.6 1.29-18.58 1.81-2.83 11.25-5.3 14.71-6.61l43-15.23c26.33-9.85 65.59-22.01 84.83-42.62 7.5-8.04 13.3-19.45 16.45-29.96 3.01-10.03 2.72-13.9 2.72-24 8.92 1.62 16.22 3.3 25-.53 10.58-4.62 17.86-16.41 24.42-25.47l31.71-42 16.5-22c2-2.68 6.06-7.68 6.34-11 .31-3.69-3.26-8.17-5.35-11l-17.25-23-35-47c-5.76-7.69-13.17-18.29-22.37-21.94-10.19-3.93-14.23-.86-24 0 0-10.32-.89-18.21-4.03-28.06-10.65-33.49-43.9-47.05-73.97-58.05l-25-9.26-44-15.38c-3.54-1.26-12.9-4.15-14.4-7.53-.66-1.5-.59-4.13-.6-5.78zm-28 384v62c0 2.53.12 5.6-.7 8-3.88 11.33-19.86 8.89-29.3 9-9.97.12-25.8 4.83-29.44-9-.64-2.42-.56-5.48-.56-8V176c.17-13.31 7.46-14.98 19-15h24c12.72.15 16.98 4.47 17 17v76l-20-1h-15v7l23 1 40 1c3.01 7.5 8.09 8.47 15 11.42l29.89 12.63c6.22 3.31 2.14 6.59 7.23 14.95 2.41 3.97 5.33 7.4 8.89 10.38 2.17 1.82 6.16 4.3 7.08 6.83 1.17 2.32-.08 11.29 0 14.79v143c-.12 14.15-5.05 6.3-15.33 22-5.08 7.76-3.02 12-6.29 15.01L2162 523.85l-15 6.68-8 4.88c-2.01.71-4.86.59-7 .59l-22 1-33 1v7zM642 191h28l14 .99 7.51 1.03L698.3 205l14.7 29 15.03 30 36.67 71 15.3 29 20.92-39 47.54-88 14.7-27 7.17-11.16H888l21 1.07h8L900.45 230l-14.15 25.09L836.58 344l-21.38 39-9.18 18 6.61 15 7.83 14 9.85 19 5.38 9 37.83 69.17 8.97 16.83 25.73 46 8.78 16-24 1-13 .98h-12.61l-7.9-12.98-16.71-31-26.47-49-9.23-17.96L779 442h-2l-22.54 44-32.71 63-10.45 20-17.08 34-8.61 13.71-12.61 1.46-21 .83-13 1 12.47-24 9.54-19 6.68-12 53.6-102 22.48-42 7.88-17-8.39-17-22.02-42-30.55-59-10.38-19-4.62-10-10.75-20-6.24-13zm484 16 39 1 21 1 10.08 26 20.32 50 36.15 88 12.14 29 8.31 20 7.69-21 12.98-32 9.75-25 29.18-71 16.54-40 7.56-16.4 7.3-1.56 17 .7 21 1.21h15V581l-25 1.96h-18V300l-1-33c-.95 5.09-5.86 15.84-8.14 21l-14.57 34-23.14 56-16.48 40-7.49 17-14.32 35c-1.2 2.91-4.34 12.43-6.56 13.99-1.16.83-12.12.98-14.3 1.01h-5c-8.61-.16-9.52-6.71-12.18-14l-15.88-39-15.02-36-30.47-76-22.45-56v315l-1 15-19 .96-21 1.04zm1014 1 34 11.33c19.27 6.49 51.46 17.68 69 26.42 12.7 6.34 22.11 11 29.11 24.25 5.25 9.93 4.89 19.22 4.89 30v34l25-9.19c3.03-1.13 10.99-3.71 14-3.21 5.92.98 13.1 11.68 16.63 16.4l33.08 45c2.29 3.2 10.86 13.77 11.06 17 .24 3.93-9.72 15.44-12.4 19l-31.95 43c-3.41 4.73-9.68 14.71-15.42 16.21-3.19.83-9.75-1.52-13-2.55l-27-8.66v32c0 11.82.29 22.28-5.88 33-7.07 12.29-19.88 18.43-32.12 24.25l-59 22.8-40 12.95v-28c0-2.13-.25-5.58.99-7.37 1.61-2.29 8.28-4.73 11.01-5.91l29-11.72c2.72-1.09 11.78-5.18 14-5.16 4.41.03 7.99 5.56 16 8.25 14.25 4.78 29.61-4.23 36-17.09 5.64-11.35 1.97-23.95-6.18-32.99-4.81-5.33-8.35-6.43-9.83-8.62-1.57-2.33-1.99-12.28-1.99-15.39V338l1-13c.03-2.39-.35-6.39.99-8.39l11.83-10.61c8.86-10.09 9.46-22.88 2.08-34-7.72-11.62-21.32-18.13-34.9-13.3-7.63 2.71-11.18 7.08-15 7.42-2.84.25-11.88-3.87-15-5.12l-28-11.28c-2.38-1.02-9.7-3.65-11.01-5.42-1.25-1.68-.99-5.24-.99-7.3zm-1528 3 6.32 12 13.46 26 7.96 15 16.52 32 15.04 29 .7 8v140l-.63 8-16.51 32-4.75 10-21.86 41L612 594zm1043 14 21 1h22v301l30-1.74 24-1.26 37-1 16-1.04h16l12-.96 29-1v39l-19 1-28 1.09-11 .91h-13l-28 2h-12l-23 1.91-13 .51h-8l-36 2.54h-16zM369 245l-38 14.8-15 5.8c-3.42.36-6.19-2.14-9-3.72-3.39-1.91-8.16-3.91-12-4.56-14.98-2.5-30.3 6.82-34.24 21.68-.94 3.56-.8 7.34-.76 11 .1 7.82 2.46 13.38 8.04 18.96 9.03 9.02 11.93 3.47 11.96 16.04v150c0 2.27.22 5.66-1.02 7.61-1.98 3.1-5.88 2.84-11.8 9.41-5.18 5.74-7.42 12.33-7.81 19.98-.18 3.67 1.07 8.62 2.51 12 5.52 12.94 16.31 19.3 30.12 18.99 5.39-.13 9.29-1.19 14-3.87 2.57-1.46 6.12-4.59 9-4.57 1.77.01 10.59 4.09 13 5.05l35 13.79c5.57 1.36 4.87-1.37 15-1.39l18-1h11l18.98-1.15c2.21-.35 5.21-1.77 3.85-4.55-1.24-2.55-5.47-2.28-7.83-2.3h-4l-10 .96h-11V257l16 1h18c-.75-9.13-6.02-6.86-18-7l-10-.97h-17c-5.73-.04-11.42-1.6-17 0zm207 4.96h-16l-12-.96h-24l-15-1h-16v7l35 1v272c0 15.51 1.46 17.93-9 18h-17c-4.21.05-4.95.27-9 1l1 7c6.59-1.6 14.19-.99 21-1l15-1h15l16-1c8.89-.01 14.27 1.91 15-7h-21l-14 1V301l-.96-13c.43-8.47 2.14-23.31 0-31H576zM924 547l-17.75-33c-4.44-8.86-6.23-8.88-6.25-19V310c0-2.66-.11-5.42.64-8l18.49-33c3.48-6.1 4.14-12.66 11.87-12.98l17 .98h12v284h-18l-17 1zm660-288h-18l-16-1h-22l-12-.96h-14l1.57 5.79 6.43 1.21h13l13 .96v266l-9 .96h-16c-2.18.04-5.85-.17-7.69 1.06-2.69 1.81-1.96 4.39-1.31 6.98 7.61-1.36 13.38-.99 21-1l15-1h14l16-1c10.01-.02 15.27 1.92 16-7h-17l-19 1V265.04h11l10 .96h15zm-339 2h3l-1 7zm770 9-63-1-18-1v7l34 1v248h-17l-18 1v7l22-1 41-1 20-1v-7h-16l-19 1V276l16 1h18zM369 533l-31-13.2c-2.99-1.2-13.63-5.08-15.44-6.79-1.76-1.67-2.41-5.63-3.26-8.01-1.43-4-3.5-7.6-6.06-11-7.94-10.55-12.21-5.82-12.24-19V325c.03-13.75 4.94-8.32 13.96-20.01 2.45-3.19 4.05-6.1 5.11-9.99.69-2.51.68-6.23 2.5-8.01 1.69-1.65 11.62-5.27 14.43-6.39l32-12.6v48h18v135l-1 17v25h-17zm1771-259-15-1h-20l-12-.96h-16V279h14l21 1v231c-.16 8.5-3.7 7.99-11 8h-14c-4.53.06-5.7.43-10 1 .81 9.85 5.7 6.02 17 6l46-1v-51c-3.61 0-13.98.82-16.4-1.6-1.79-1.79-1.58-5.05-1.6-7.4V306h18zm78-1.44c5.11-.15 10.11 1.29 13.35 5.54 5.3 6.95 3.11 19.11-5.35 22.81-2.49 1.09-5.33 1.17-8 1.05-12.63-.57-17.92-14.28-10.36-23.86 2.86-3.62 6.04-4.67 10.36-5.54m-1932 1c6.2-1.08 11.25-.55 15.61 4.54 6.62 7.75 3.57 20.53-6.61 23.33-19.62 5.42-27.76-21.26-9-27.87M888 323l1 14v132l-1 13-31.25-58-10.86-22 2.79-7 9.74-18 9.01-17zm-204 27 13.86 26c2.59 4.67 13.2 23.11 13.97 27 .84 4.31-4.03 11-6.07 15L684 457zm654 92c1.6 4.03 1 8.72 1 13v110c0 16.97-2.13 31.11 12.01 43.82 12.49 11.21 25.63 9.18 40.99 9.18v54c-.01 3.33.2 6.88-1.45 9.91-3.81 6.96-11.02 5.73-17.55 6.18l-11 .91c-6.18.03-20.29 1.32-24.89-2.43-5.06-4.12-5.1-9.66-5.11-15.57V465c.01-9.07 2.7-14.69 6-23m-136 4 23.88 55c2.96 5.09 7.21 9.63 12.12 12.9 2.24 1.49 7.75 3.81 8.98 5.59 1.63 2.39 1.02 13.14 1.02 16.51l-35 1v7l82-2v-7h-16l-19 1v-16c18.01 0 35.37 2.95 48.82-12.01 6.44-7.18 6.28-12.8 11.18-18.99v165c.13 10.78 5.57 33.43-8.01 38.15-2.81.97-6.05.85-8.99.85h-18c-4.17.05-9.32 1.29-13 .67-10.64-1.8-11.96-10.64-12-19.67V562l14-1c9.12-.01 16.57 2.42 21-7l-82 2v7h16l19-1v101c0 4.88.46 22.52-.65 26-.92 2.9-2.69 5.11-5.39 6.55-3.53 1.87-8.07 1.41-11.96 1.45l-10 .95h-18c-6.1-.04-10.73-1.74-13.11-7.95-1.02-2.66-.89-6.17-.89-9v-51c.02-12.11 3.47-9.18 9.12-19 3.95-6.87 4.87-12.24 4.88-20zm1015 51.48c20.11-1.9 23.13 27.17 4 30.01-9.52 1.42-17.81-7.05-16.8-16.49.8-7.41 5.89-11.85 12.8-13.52m-1932 1.17c5.26-1.09 10.63-1.14 14.9 2.63 8.48 7.48 6.25 21.43-4.9 24.92-18.59 5.82-27.53-20.12-10-27.55M777 518h2l12 24-10 1 1 6 12.61 1.02L801 561c-8 0-17.9-2.63-20 7h16c2.28 0 5.65-.22 7.61 1.02 1.9 1.21 3.83 4.98 4.97 6.98 4.32 7.62 6.4 10.15 6.42 19v113c-.02 4.52-.04 8.04-3.53 11.44-3.83 3.74-8.53 3.55-13.47 3.56l-28 1c-6.53-.08-11.21-1.29-13.85-8-1.57-3.98-1.15-10.61-1.15-15V566c.02-10.98 2.32-11.72 7.22-21zm159 49 24-1v133c-.01 5.02.29 9.03-4.11 12.49-4.28 3.37-10.67 2.25-15.89 2.93l-26 .58c-4.08-.06-7.53-.31-10.61-3.39-3.61-3.61-3.38-7.92-3.39-12.61v-57c20.69 0 40.66-1.5 49.54-24 1.37-3.47 2.27-7.27 2.42-11 .68-16.79-9.9-26-15.96-40m959 2c1.74 4.38 1 14.85 1 20v43c-.06 12.78-4.81 15.98-17 16l-28 1c-5.77-.08-10.86-1.38-13.69-7.02-1.49-2.97-1.3-6.72-1.31-9.98v-37c22.67 0 51.2 1.29 59-26m-275 6c3.25 6.2 2.79 9.36 8.33 16 14.96 17.92 32.08 12 51.67 12v48c-.03 5.21-.24 9.84-4.22 13.77s-10.5 4.2-15.78 4.23c-5.8.03-27.99.65-32-.89-2.92-1.12-5.3-3.31-6.69-6.11-1.49-3.02-1.3-6.71-1.31-10zm-876 7c1.64 4.12 1 9.56 1 14v113c0 2.99.1 6.12-.8 9-3.23 10.29-15.23 9.99-24.2 10h-21c-12.3-.06-14.94-5.39-15-17v-58c28.6-1.33 36.56-23.9 47.26-46zm1020 17 32-2h12l16-1v42c-.01 3.78.22 7.63-1.85 10.98-3.12 5.04-6.87 5.53-12.15 6.29-8.77 1.27-20.85.74-30 .73-6.49-.01-11.42-.37-14.69-7-1.83-3.73-1.31-11.65-1.31-16zm-72 4 22-1 25-1.83 13-1.17v48c-.01 5.1.27 8.99-4.11 12.57-3.79 3.1-7.44 2.17-11.89 2.6l-29 .83c-6.1-.03-11.01-.75-13.77-7.04-1.79-4.05-1.23-13.24-1.23-17.96zm-863 11c5.17 6.17 6.21 11.75 12.09 17.99C856.58 648.41 869.84 643 889 643v58c0 2.83.13 6.34-.89 9-4.61 12.03-24.63 8.88-35.11 9-6.63.08-12.89 2.43-18.96-1.72-5.2-3.57-5.03-7.66-5.04-13.28zm287 16 9 .96 16-.96 36-2v47c0 5.89.93 16-2.23 20.9-3.75 5.82-10.58 6.09-16.77 6.1h-26c-5.9-.01-10.67-.04-13.83-6.02-2.6-4.92-2.17-16.26-2.17-21.98zm-504 13c6.41 4.45 9.13 7.67 17 10.25 10.88 3.57 17.58.8 28 .75h15v62c-.02 11.58-2.84 15.93-15 16l-13 .95h-18c-4.9-.02-9.01-.75-11.99-5.13-2.24-3.28-2-7.05-2.01-10.82z"><title>Logo</title></path></svg>